<?xml version="1.0" encoding="UTF-8"?>
<svg version="1.1" xmlns="http://www.w3.org/2000/svg" width="100" height="100">
<path d="M0 0 C4.8846525 2.26787438 7.73212562 5.1153475 10 10 C10.75381535 15.5997712 10.77303575 20.33499991 8.375 25.5 C3.80134327 30.3143755 0.6912538 32.25156236 -6 32.5 C-12.6912538 32.25156236 -15.80134327 30.3143755 -20.375 25.5 C-22.77303575 20.33499991 -22.75381535 15.5997712 -22 10 C-17.52212837 0.3553534 -9.85292056 -1.32635469 0 0 Z " fill="#40BF56" transform="translate(22,34)"/>
<path d="M0 0 C2.93423195 1.79646854 4.47205355 2.9441071 6 6 C6.53118252 10.91996928 6.75105553 14.77327597 4.125 19.0625 C0.38164457 22.47555936 -2.61023456 22.33156723 -7.51953125 22.2890625 C-10.99962092 21.88350874 -12.66684061 20.55189308 -15 18 C-15.66 17.01 -16.32 16.02 -17 15 C-17.45890625 15.51691406 -17.9178125 16.03382812 -18.390625 16.56640625 C-19.00421875 17.22511719 -19.6178125 17.88382813 -20.25 18.5625 C-20.85328125 19.22378906 -21.4565625 19.88507812 -22.078125 20.56640625 C-24 22 -24 22 -26.234375 21.71484375 C-26.81703125 21.47894531 -27.3996875 21.24304688 -28 21 C-27.42655063 18.13275314 -27.1385485 17.1385485 -25 15 C-48.38558235 13.66514624 -48.38558235 13.66514624 -69 23 C-70.45692185 25.08238702 -71.65026478 27.18696873 -72.83984375 29.4296875 C-74 31 -74 31 -77.3125 31.5 C-78.199375 31.335 -79.08625 31.17 -80 31 C-78.32535316 23.55712517 -73.23947798 18.24014209 -67 14.125 C-61.28528248 10.60256635 -55.14386075 9.75046956 -48.53515625 9.5859375 C-47.85698349 9.56657135 -47.17881073 9.5472052 -46.48008728 9.5272522 C-44.34101434 9.46808001 -42.20188572 9.42132481 -40.0625 9.375 C-38.60088964 9.33676255 -37.13930043 9.29770758 -35.67773438 9.2578125 C-32.11868457 9.16243181 -28.55947413 9.07817433 -25 9 C-25.50144531 8.55011719 -26.00289062 8.10023437 -26.51953125 7.63671875 C-27.25236328 6.82654297 -27.25236328 6.82654297 -28 6 C-27.6875 3.8125 -27.6875 3.8125 -27 2 C-23.64749299 2.57575664 -22.06181371 3.59306263 -19.75 6.0625 C-18.96882813 6.88427734 -18.96882813 6.88427734 -18.171875 7.72265625 C-17.78515625 8.14417969 -17.3984375 8.56570313 -17 9 C-16.38125 7.6078125 -16.38125 7.6078125 -15.75 6.1875 C-12.04698686 -0.55727393 -7.2080504 -1.08470661 0 0 Z " fill="#3FBF56" transform="translate(94,0)"/>
<path d="M0 0 C2.625 -0.5625 2.625 -0.5625 6 0 C7.41796875 1.828125 7.41796875 1.828125 8.8125 4.1875 C12.56808677 10.34356491 16.82543261 12.86528211 23.73046875 14.7421875 C34.00765993 16.683287 44.58676372 16.19198989 55 16 C54.01 15.01 53.02 14.02 52 13 C52.66 11.68 53.32 10.36 54 9 C57.81684226 10.55500981 60.19195732 13.03595495 63 16 C64.175625 14.5459375 64.175625 14.5459375 65.375 13.0625 C67.49607461 10.43906562 68.72915523 9.13720625 72.20703125 8.76171875 C79.28164844 8.56019292 79.28164844 8.56019292 83.0625 10.875 C86.47509989 14.61785149 86.32843064 17.60769925 86.29296875 22.515625 C85.88537873 25.97198834 84.53723498 27.68663869 82 30 C78.29512168 31.85243916 74.04385812 31.4585162 70 31 C65.92429172 28.70741409 64.35632495 26.43888167 63 22 C62.54109375 22.51691406 62.0821875 23.03382812 61.609375 23.56640625 C60.99578125 24.22511719 60.3821875 24.88382813 59.75 25.5625 C59.14671875 26.22378906 58.5434375 26.88507813 57.921875 27.56640625 C56 29 56 29 53.765625 28.71484375 C53.18296875 28.47894531 52.6003125 28.24304688 52 28 C52.57344937 25.13275314 52.8614515 24.1385485 55 22 C54.11852295 21.9906543 53.2370459 21.98130859 52.32885742 21.97167969 C49.00519395 21.92722179 45.68273465 21.86541682 42.35961914 21.79248047 C40.93135014 21.76454759 39.5029345 21.74319785 38.07446289 21.72900391 C26.76277668 21.60997529 16.12543631 20.81916449 7.5 12.625 C6.7059375 11.89539063 5.911875 11.16578125 5.09375 10.4140625 C2.48526484 7.40651804 0 4.11240609 0 0 Z " fill="#3FC056" transform="translate(14,69)"/>
<path d="M0 0 C4.72411035 0.19683793 7.16374383 0.88324585 10.8125 3.9375 C17.59929328 9.40099961 25.61986346 9.27032699 34 9 C33.49855469 8.55011719 32.99710938 8.10023437 32.48046875 7.63671875 C31.99191406 7.09660156 31.50335938 6.55648437 31 6 C31.3125 3.8125 31.3125 3.8125 32 2 C35.35250701 2.57575664 36.93818629 3.59306263 39.25 6.0625 C40.03117187 6.88427734 40.03117187 6.88427734 40.828125 7.72265625 C41.21484375 8.14417969 41.6015625 8.56570312 42 9 C42.61875 7.6078125 42.61875 7.6078125 43.25 6.1875 C45.00714902 2.98697857 45.94816218 1.84302817 49 0 C53.85723364 -0.87667144 57.83334278 -0.71427993 62.0625 1.875 C65.47509989 5.61785149 65.32843064 8.60769925 65.29296875 13.515625 C64.88537873 16.97198834 63.53723498 18.68663869 61 21 C57.30044901 22.84977549 53.03799166 22.47056911 49 22 C45.60511578 19.94892412 44.19676919 18.29515379 42 15 C41.54109375 15.51691406 41.0821875 16.03382812 40.609375 16.56640625 C39.99578125 17.22511719 39.3821875 17.88382813 38.75 18.5625 C38.14671875 19.22378906 37.5434375 19.88507813 36.921875 20.56640625 C35 22 35 22 32.765625 21.71484375 C32.18296875 21.47894531 31.6003125 21.24304688 31 21 C31.57344937 18.13275314 31.8614515 17.1385485 34 15 C32.77023438 14.96261719 31.54046875 14.92523438 30.2734375 14.88671875 C28.64059599 14.82102972 27.00778482 14.75458341 25.375 14.6875 C24.56675781 14.66494141 23.75851563 14.64238281 22.92578125 14.61914062 C16.64647949 14.33835884 12.42108292 12.9486765 7.4375 8.9375 C5.01428665 7.01135605 2.91037355 5.99784236 0 5 C0 3.35 0 1.7 0 0 Z " fill="#3FBF56" transform="translate(35,52)"/>
<path d="M0 0 C2.93423195 1.79646854 4.47205355 2.9441071 6 6 C6.53118252 10.91996928 6.75105553 14.77327597 4.125 19.0625 C0.38164457 22.47555936 -2.61023456 22.33156723 -7.51953125 22.2890625 C-10.99962092 21.88350874 -12.66684061 20.55189308 -15 18 C-15.66 17.01 -16.32 16.02 -17 15 C-17.45890625 15.51691406 -17.9178125 16.03382812 -18.390625 16.56640625 C-19.00421875 17.22511719 -19.6178125 17.88382813 -20.25 18.5625 C-20.85328125 19.22378906 -21.4565625 19.88507812 -22.078125 20.56640625 C-24 22 -24 22 -26.234375 21.71484375 C-26.81703125 21.47894531 -27.3996875 21.24304688 -28 21 C-27.42655063 18.13275314 -27.1385485 17.1385485 -25 15 C-34.86673142 14.68171834 -42.36063372 15.1850213 -50.10546875 21.66796875 C-53.03050477 23.72454047 -55.47649529 23.8531873 -59 24 C-59 22.35 -59 20.7 -59 19 C-58.22076172 18.63648438 -58.22076172 18.63648438 -57.42578125 18.265625 C-53.16620374 16.21850826 -49.65693136 14.03002884 -46 11 C-43.34081834 10.11360611 -41.51935359 9.82010975 -38.76953125 9.68359375 C-37.56586914 9.62075195 -37.56586914 9.62075195 -36.33789062 9.55664062 C-35.50451172 9.51732422 -34.67113281 9.47800781 -33.8125 9.4375 C-32.96751953 9.39431641 -32.12253906 9.35113281 -31.25195312 9.30664062 C-29.16815567 9.20068482 -27.08409897 9.0998498 -25 9 C-25.50144531 8.55011719 -26.00289062 8.10023437 -26.51953125 7.63671875 C-27.00808594 7.09660156 -27.49664062 6.55648437 -28 6 C-27.6875 3.8125 -27.6875 3.8125 -27 2 C-23.64749299 2.57575664 -22.06181371 3.59306263 -19.75 6.0625 C-18.96882813 6.88427734 -18.96882813 6.88427734 -18.171875 7.72265625 C-17.78515625 8.14417969 -17.3984375 8.56570312 -17 9 C-16.38125 7.6078125 -16.38125 7.6078125 -15.75 6.1875 C-12.04698686 -0.55727393 -7.2080504 -1.08470661 0 0 Z " fill="#3FBF56" transform="translate(94,26)"/>
</svg>
