<?xml version="1.0" encoding="UTF-8"?>
<svg version="1.1" xmlns="http://www.w3.org/2000/svg" width="16" height="16" viewBox="0 0 100 100">
    <circle cx="18" cy="50" r="15" fill="#3FBF56"/>
    <circle cx="85" cy="11" r="11" fill="#3FBF56"/>
    <circle cx="85" cy="37" r="11" fill="#3FBF56"/>
    <circle cx="85" cy="63" r="11" fill="#3FBF56"/>
    <circle cx="85" cy="89" r="11" fill="#3FBF56"/>
    <path d="M94 0C73.147 19.224 72.543 19.885 71.922 20.566 70 22 70 22 67.766 21.715L66 21c.573-2.867.861-3.861 3-6-23.386-1.335-23.386-1.335-44 8-1.457 2.082-2.65 4.187-3.84 6.43C20 31 20 31 16.688 31.5L14 31c1.675-7.443 6.76-12.76 13-16.875 5.715-3.522 11.856-4.375 18.465-4.54C61.88 9.163 65.44 9.079 69 9l-1.52-1.363C66.312 3.812 66.312 3.812 67 2c3.353.576 4.938 1.593 7.25 4.062C76.215 8.144 76.602 8.566 77 15.7z" fill="#3FBF56"/>
    <path d="M14 69c2.625-.562 2.625-.562 6 0 6.568 10.344 10.825 12.865 17.73 14.742C48.008 85.683 58.587 85.192 69 85l-3-3 2-4c3.817 1.555 6.192 4.036 9 7-2.004 8.225-2.618 8.884-3.25 9.562C67.183 97.48 66.6 97.243 66 97c.573-2.867.861-3.861 3-6-28.237-.39-38.875-1.18-47.5-9.375C16.485 76.407 14 73.112 14 69z" fill="#3FC056"/>
    <path d="M35 52c4.724.197 7.164.883 10.812 3.938C52.6 61.4 60.62 61.27 69 61c-2.008-1.903-2.497-2.444-3-3 .312-2.188.312-2.188 1-4 3.353.576 4.938 1.593 7.25 4.062C76.215 60.145 76.602 60.567 77 61c-.459 6.517-.918 7.034-1.39 7.566l-1.86 1.996-1.828 2.004C70 74 70 74 67.766 73.715L66 73c.573-2.867.861-3.861 3-6l-3.727-.113c-1.632-.066-3.265-.132-4.898-.2l-2.45-.068c-6.279-.282-10.504-1.671-15.487-5.683C40.014 59.012 37.91 57.998 35 57v-5z" fill="#3FBF56"/>
    <path d="M94 26C76.54 41.517 76.082 42.034 75.61 42.566 70 48 70 48 67.765 47.715 66.573 44.133 66.86 43.139 69 41c-9.867-.318-17.36.185-25.105 6.668C35 48.35 35 46.7 35 45c5.834-2.781 9.343-4.97 13-8 20.499-2.45 19.997-2.9 19.48-3.363L66 32c.312-2.188.312-2.188 1-4 3.353.576 8.938 1.593 15.25 8.5z" fill="#3FBF56"/>
</svg> 